PathFileType	4	(X/Y/Z)	/Users/itak/Documents/Research/Walk-IL/dataset/trc/00355_00011.trc
DataRate	CameraRate	NumFrames	NumMarkers	Units	OrigDataRate	OrigDataStartFrame	OrigNumFrames
100.000000	100.000000	4	56	mm	100.000000	279	746
Frame#	Time	RPSI			LPSI			STRN			T10			C7			CLAV			RBAK			LBAK			LSHO			LUPA			LAEL			LAOL			LWTS			LWPS			LFRA			LHPS			LHTS			RSHO			RUPA			RAEL			RAOL			RWTS			RWPS			RFRA			RIFD			RHTS			RHPS			RBHD			LFHD			RFHD			LBHD			LHIP			RHIP			RASI			LASI			LKNE			LTHI			LANK			LTIP			LTOE			LMT1			LMT5			LHEE			RKNE			RANK			RTIP			RTOE			RMT1			RMT5			RHEE			L3			RTHI			LIFD			*53			*54			*55			
		X1	Y1	Z1	X2	Y2	Z2	X3	Y3	Z3	X4	Y4	Z4	X5	Y5	Z5	X6	Y6	Z6	X7	Y7	Z7	X8	Y8	Z8	X9	Y9	Z9	X10	Y10	Z10	X11	Y11	Z11	X12	Y12	Z12	X13	Y13	Z13	X14	Y14	Z14	X15	Y15	Z15	X16	Y16	Z16	X17	Y17	Z17	X18	Y18	Z18	X19	Y19	Z19	X20	Y20	Z20	X21	Y21	Z21	X22	Y22	Z22	X23	Y23	Z23	X24	Y24	Z24	X25	Y25	Z25	X26	Y26	Z26	X27	Y27	Z27	X28	Y28	Z28	X29	Y29	Z29	X30	Y30	Z30	X31	Y31	Z31	X32	Y32	Z32	X33	Y33	Z33	X34	Y34	Z34	X35	Y35	Z35	X36	Y36	Z36	X37	Y37	Z37	X38	Y38	Z38	X39	Y39	Z39	X40	Y40	Z40	X41	Y41	Z41	X42	Y42	Z42	X43	Y43	Z43	X44	Y44	Z44	X45	Y45	Z45	X46	Y46	Z46	X47	Y47	Z47	X48	Y48	Z48	X49	Y49	Z49	X50	Y50	Z50	X51	Y51	Z51	X52	Y52	Z52	X53	Y53	Z53	X54	Y54	Z54	X55	Y55	Z55	X56	Y56	Z56	

280	2.79	-463.312744140625	927.3653564453125	318.1213989257812	-590.0607299804688	946.7469482421875	330.1057434082031	-544.5136108398438	1176.214599609375	88.85252380371094	-557.8570556640625	1120.725952148438	329.4570617675781	-581.7080078125	1364.394409179688	276.1552734375	-551.282470703125	1304.300415039062	124.7236938476562	-520.680419921875	1229.394897460938	339.7420043945312	-681.3380126953125	1325.757934570312	275.2483520507812	-723.5875244140625	1343.75439453125	183.9840240478516	-801.834228515625	1231.714599609375	183.2149505615234	-861.3695068359375	1050.054321289062	111.9662475585938	-809.1988525390625	1005.203247070312	164.23486328125	-858.7182006835938	889.2724609375	-85.22421264648438	-909.4017944335938	859.9143676757812	-49.75475692749023	-886.15673828125	965.0812377929688	56.51303100585938	-915.1970825195312	802.3594970703125	-88.70563507080078	-886.6416015625	835.018798828125	-136.6991577148438	-413.3460388183594	1355.00537109375	249.6388244628906	-360.0362548828125	1297.5	289.7168273925781	-351.5233764648438	1051.565063476562	386.917724609375	-439.0524597167969	1034.60498046875	355.9697570800781	-299.2568969726562	802.8519287109375	377.2380981445312	-290.7352905273438	818.0830078125	452.3240356445312	-329.3489685058594	987.26025390625	402.4515075683594	-293.2577209472656	643.192138671875	447.8521118164062	-271.3291625976562	706.8179321289062	414.667236328125	-282.6388549804688	736.747314453125	476.6726989746094	-494.9284057617188	1569.771606445312	240.7901000976562	-552.8633422851562	1569.113159179688	40.03365325927734	-461.0738220214844	1566.958251953125	81.29581451416016	-635.3681640625	1570.511596679688	207.5490264892578	-711.4796752929688	897.4652099609375	264.1366271972656	-374.4508056640625	868.5109252929688	219.4271392822266	-429.5567321777344	903.3533325195312	123.5213165283203	-671.1524658203125	911.1290283203125	133.1218872070312	-707.4915161132812	450.3269348144531	311.4447937011719	-718.8428344726562	583.5679321289062	276.9986267089844	-656.7011108398438	69.19059753417969	538.3712768554688	-697.9758911132812	254.6788330078125	430.4838256835938	-686.4686279296875	41.41401672363281	330.4248046875	-620.0100708007812	34.19321823120117	373.7703857421875	-719.1228637695312	41.78739166259766	433.4971313476562	-580.5382080078125	73.01034545898438	539.05029296875	-469.1028747558594	438.7458190917969	30.5169734954834	-564.845947265625	42.94350814819336	-52.10026550292969	-489.702392578125	332.1837158203125	-14.14727783203125	-530.1411743164062	100.8738632202148	-237.1129302978516	-590.8203735351562	84.05051422119141	-209.074462890625	-503.9435729980469	51.35122299194336	-136.1893005371094	-628.8472290039062	41.1004753112793	-25.51362609863281	-530.9430541992188	997.7166748046875	320.7870178222656	-396.3085327148438	684.9970703125	93.45850372314453	-873.7651977539062	762.7376708984375	-179.9385986328125	nan	nan	nan	nan	nan	nan	nan	nan	nan	
281	2.8	-463.6449890136719	926.98046875	307.8199462890625	-590.4202880859375	946.276611328125	319.2440490722656	-542.66455078125	1175.857299804688	78.91294860839844	-558.2078247070312	1119.879760742188	319.7274169921875	-581.2349243164062	1363.915405273438	266.6923828125	-549.7152099609375	1303.854614257812	115.1312942504883	-520.9544067382812	1228.553344726562	330.2074890136719	-680.780029296875	1325.197265625	265.0216369628906	-722.5083618164062	1342.909912109375	173.4125671386719	-800.49951171875	1230.6328125	172.7901611328125	-859.4022216796875	1048.14111328125	103.5947799682617	-807.611572265625	1003.846069335938	156.6517791748047	-854.257568359375	886.77978515625	-92.58145904541016	-905.193359375	857.3549194335938	-57.68693923950195	-883.501708984375	962.8323364257812	48.55117034912109	-910.4804077148438	799.7482299804688	-96.72750854492188	-881.3943481445312	832.5042114257812	-144.3456878662109	-412.6244201660156	1354.121215820312	241.2477416992188	-359.7233276367188	1296.23828125	281.5094909667969	-352.7081909179688	1049.642822265625	377.3318786621094	-440.387451171875	1033.43505859375	346.1833190917969	-302.8910827636719	800.4530029296875	366.720703125	-293.785888671875	815.4649658203125	441.7759704589844	-330.9111633300781	985.068359375	392.5937805175781	-299.4151916503906	640.4608764648438	437.1676025390625	-276.6739807128906	703.6785278320312	403.8926696777344	-286.9414672851562	733.8273315429688	466.0035705566406	-494.4862976074219	1569.187866210938	232.3519592285156	-551.2633056640625	1569.109130859375	31.21635627746582	-459.6678771972656	1566.998291015625	73.00137329101562	-634.7258911132812	1569.773681640625	198.2589721679688	-711.5584716796875	896.842041015625	252.7619018554688	-374.0282592773438	868.4367065429688	209.5670013427734	-428.9211120605469	903.2416381835938	113.3746948242188	-670.6304931640625	910.5394287109375	121.9121170043945	-708.6702270507812	450.0888366699219	300.4537963867188	-719.6478881835938	583.0355224609375	265.7473449707031	-658.1343994140625	73.88634490966797	536.8439331054688	-699.3248291015625	257.1656188964844	424.5126953125	-686.6643676757812	41.42724990844727	330.2746887207031	-620.4241333007812	35.06395721435547	373.46826171875	-719.914306640625	42.34078216552734	432.7931823730469	-581.9866943359375	78.82732391357422	537.510986328125	-468.418701171875	438.5283508300781	20.53724670410156	-566.5816650390625	42.43955230712891	-52.91598129272461	-490.1347045898438	330.3486633300781	-22.81210708618164	-531.4756469726562	94.40076446533203	-239.8332366943359	-592.0911865234375	77.64421844482422	-211.6365814208984	-505.4487915039062	48.48198699951172	-137.1596221923828	-630.8167114257812	40.76351547241211	-27.24118614196777	-531.7551879882812	996.4712524414062	310.7399291992188	-395.2939147949219	685.41796875	82.88220977783203	-867.9361572265625	760.2898559570312	-187.5460968017578	nan	nan	nan	nan	nan	nan	nan	nan	nan	
282	2.81	-463.7626647949219	926.9063720703125	297.1682739257812	-590.5759887695312	946.0004272460938	308.1286926269531	-540.6929321289062	1175.844848632812	68.88472747802734	-558.384765625	1119.270874023438	309.879150390625	-580.6046752929688	1363.698364257812	257.1830139160156	-548.0311279296875	1303.74560546875	105.502571105957	-521.0360717773438	1227.9169921875	320.6166381835938	-680.077880859375	1324.895751953125	254.7789001464844	-721.2877197265625	1342.367797851562	162.8445281982422	-799.0401611328125	1229.85400390625	162.3791809082031	-857.2205200195312	1046.462280273438	95.29441070556641	-805.8111572265625	1002.831298828125	149.1671142578125	-849.53857421875	883.9660034179688	-99.44996643066406	-900.8670043945312	854.663330078125	-65.13398742675781	-880.63330078125	960.7105102539062	40.82470321655273	-905.5252685546875	796.8291625976562	-103.9998092651367	-875.8516235351562	829.48046875	-151.3224182128906	-411.7582092285156	1353.499389648438	232.8029937744141	-359.2590026855469	1295.231689453125	273.1948852539062	-353.7032775878906	1047.959838867188	367.5867919921875	-441.5010375976562	1032.489868164062	336.2070617675781	-306.1948547363281	798.3760986328125	355.7026672363281	-296.4642333984375	813.0140380859375	430.7330627441406	-332.2353210449219	983.096435546875	382.5127258300781	-304.9855651855469	638.0762939453125	425.6083984375	-281.6222229003906	700.83935546875	392.4114990234375	-290.8283386230469	731.0324096679688	454.6996765136719	-493.9071044921875	1568.889282226562	223.8578033447266	-549.493896484375	1569.373413085938	22.3650074005127	-458.1084899902344	1567.298583984375	64.68569946289062	-633.927734375	1569.347900390625	188.9105987548828	-711.4622802734375	896.4423217773438	241.1067504882812	-373.3399353027344	868.6077880859375	199.3593139648438	-428.1576843261719	903.4439697265625	103.0156860351562	-669.8973388671875	910.2015991210938	110.426887512207	-710.099609375	449.9335021972656	288.3416137695312	-720.4957275390625	582.6226806640625	253.6100006103516	-659.8226928710938	79.32963562011719	534.7738037109375	-700.928466796875	260.0980224609375	417.7263793945312	-686.8729858398438	41.4716796875	330.150390625	-620.9452514648438	36.10085296630859	373.0042724609375	-720.8737182617188	43.0084342956543	431.8936767578125	-583.7557373046875	85.57051086425781	535.3631591796875	-467.6906127929688	438.3193969726562	10.92418766021729	-568.02783203125	42.56879806518555	-53.94715881347656	-490.4941101074219	328.8472290039062	-31.39043617248535	-533.2246704101562	88.37409973144531	-242.8554992675781	-593.6586303710938	71.56938934326172	-214.2299041748047	-507.1200561523438	46.40427780151367	-138.5042419433594	-632.4246215820312	40.93890762329102	-28.98516273498535	-532.6098022460938	995.6224365234375	300.6468505859375	-394.03076171875	685.552490234375	72.53891754150391	-861.864501953125	757.186279296875	-194.2141265869141	nan	nan	nan	nan	nan	nan	nan	nan	nan	
283	2.82	-463.667724609375	927.1263427734375	286.2885131835938	-590.5481567382812	945.899169921875	296.8254699707031	-538.6417846679688	1176.179077148438	58.79781723022461	-558.3658447265625	1118.921142578125	299.908447265625	-579.8297729492188	1363.748168945312	247.6358184814453	-546.253662109375	1303.977661132812	95.85292053222656	-520.9210205078125	1227.512817382812	311.0046997070312	-679.2361450195312	1324.86865234375	244.5318145751953	-719.9476928710938	1342.148681640625	152.3040466308594	-797.4645385742188	1229.392456054688	152.0222778320312	-854.8201904296875	1045.052368164062	87.05668640136719	-803.7733154296875	1002.194885253906	141.7710113525391	-844.5669555664062	880.853271484375	-105.8337020874023	-896.4676513671875	851.88134765625	-72.11912536621094	-877.5682983398438	958.7634887695312	33.31316375732422	-900.3630981445312	793.6328735351562	-110.5149765014648	-870.0305786132812	825.9566040039062	-157.6202697753906	-410.7626953125	1353.167236328125	224.3083648681641	-358.6486206054688	1294.504272460938	264.7795104980469	-354.5078125	1046.546630859375	357.6803283691406	-442.3892822265625	1031.792846679688	326.0418395996094	-309.1355590820312	796.64599609375	344.2289733886719	-298.774658203125	810.7622680664062	419.2339477539062	-333.3438415527344	981.3816528320312	372.2144165039062	-309.8941040039062	636.0760498046875	413.1668090820312	-286.1118774414062	698.36083984375	380.2588806152344	-294.3119812011719	728.389404296875	442.7984313964844	-493.2047424316406	1568.886352539062	215.31494140625	-547.5584106445312	1569.900024414062	13.488112449646	-456.4050903320312	1567.847290039062	56.36355209350586	-632.9938354492188	1569.250610351562	179.4999237060547	-711.174072265625	896.2796020507812	229.1925659179688	-372.3981018066406	869.0045166015625	188.9548034667969	-427.2146301269531	903.9202880859375	92.56121826171875	-668.902587890625	910.1305541992188	98.70463562011719	-711.8305053710938	449.8818054199219	275.0679321289062	-721.4188842773438	582.3391723632812	240.5485992431641	-661.8746948242188	85.57096862792969	532.0332641601562	-702.8721923828125	263.4895629882812	409.9842224121094	-687.1004028320312	41.53915023803711	330.0755615234375	-621.6082763671875	37.31539154052734	372.3457336425781	-722.048095703125	43.80578994750977	430.7494201660156	-585.9599609375	93.29159545898438	532.4559936523438	-466.9127807617188	438.1903381347656	1.5665043592453	-569.1373901367188	43.18032836914062	-55.25662231445312	-490.7166442871094	327.7486877441406	-39.96873092651367	-535.2193603515625	82.78739929199219	-246.1610412597656	-595.3863525390625	65.89940643310547	-216.8689117431641	-508.8951416015625	44.97027587890625	-140.2530364990234	-633.62255859375	41.57837295532227	-30.77473258972168	-533.419677734375	995.1926879882812	290.520263671875	-392.5683898925781	685.4205322265625	62.49073791503906	-855.5747680664062	753.4280395507812	-199.9011840820312	nan	nan	nan	nan	nan	nan	nan	nan	nan	
